<svg id="visual" viewBox="0 0 900 600" width="900" height="600" xmlns="http://www.w3.org/2000/svg" xmlns:xlink="http://www.w3.org/1999/xlink" version="1.1"><g><g transform="translate(324 246)"><path d="M0 -48.6L42.1 -24.3L42.1 24.3L0 48.6L-42.1 24.3L-42.1 -24.3Z" fill="none" stroke="#00796b3030" stroke-width="3"></path></g><g transform="translate(711 370)"><path d="M0 -43L37.2 -21.5L37.2 21.5L0 43L-37.2 21.5L-37.2 -21.5Z" fill="none" stroke="#00796b30" stroke-width="3"></path></g><g transform="translate(700 536)"><path d="M0 -47L40.7 -23.5L40.7 23.5L0 47L-40.7 23.5L-40.7 -23.5Z" stroke="#00796b30" fill="none" stroke-width="3"></path></g><g transform="translate(268 588)"><path d="M0 -35L30.3 -17.5L30.3 17.5L0 35L-30.3 17.5L-30.3 -17.5Z" stroke="#00796b30" fill="none" stroke-width="3"></path></g><g transform="translate(448 23)"><path d="M0 -47L40.7 -23.5L40.7 23.5L0 47L-40.7 23.5L-40.7 -23.5Z" stroke="#00796b30" fill="none" stroke-width="3"></path></g><g transform="translate(22 497)"><path d="M0 -29L25.1 -14.5L25.1 14.5L0 29L-25.1 14.5L-25.1 -14.5Z" stroke="#00796b30" fill="none" stroke-width="3"></path></g><g transform="translate(342 520)"><path d="M0 -22L19.1 -11L19.1 11L0 22L-19.1 11L-19.1 -11Z" stroke="#00796b30" fill="none" stroke-width="3"></path></g><g transform="translate(474 443)"><path d="M0 -13L11.3 -6.5L11.3 6.5L0 13L-11.3 6.5L-11.3 -6.5Z" stroke="#00796b30" fill="none" stroke-width="3"></path></g><g transform="translate(48 210)"><path d="M0 -13L11.3 -6.5L11.3 6.5L0 13L-11.3 6.5L-11.3 -6.5Z" stroke="#00796b30" fill="none" stroke-width="3"></path></g><g transform="translate(551 276)"><path d="M0 -21L18.2 -10.5L18.2 10.5L0 21L-18.2 10.5L-18.2 -10.5Z" stroke="#00796b30" fill="none" stroke-width="3"></path></g><g transform="translate(404 167)"><path d="M0 -12L10.4 -6L10.4 6L0 12L-10.4 6L-10.4 -6Z" stroke="#00796b30" fill="none" stroke-width="3"></path></g><g transform="translate(666 8)"><path d="M0 -21L18.2 -10.5L18.2 10.5L0 21L-18.2 10.5L-18.2 -10.5Z" stroke="#00796b30" fill="none" stroke-width="3"></path></g><g transform="translate(869 464)"><path d="M0 -34L29.4 -17L29.4 17L0 34L-29.4 17L-29.4 -17Z" stroke="#00796b30" fill="none" stroke-width="3"></path></g><g transform="translate(37 95)"><path d="M0 -29L25.1 -14.5L25.1 14.5L0 29L-25.1 14.5L-25.1 -14.5Z" stroke="#00796b30" fill="none" stroke-width="3"></path></g><g transform="translate(890 184)"><path d="M0 -26L22.5 -13L22.5 13L0 26L-22.5 13L-22.5 -13Z" stroke="#00796b30" fill="none" stroke-width="3"></path></g><g transform="translate(258 330)"><path d="M0 -31L26.8 -15.5L26.8 15.5L0 31L-26.8 15.5L-26.8 -15.5Z" stroke="#00796b30" fill="none" stroke-width="3"></path></g><g transform="translate(30 379)"><path d="M0 -26L22.5 -13L22.5 13L0 26L-22.5 13L-22.5 -13Z" stroke="#00796b30" fill="none" stroke-width="3"></path></g><g transform="translate(881 583)"><path d="M0 -42L36.4 -21L36.4 21L0 42L-36.4 21L-36.4 -21Z" stroke="#00796b30" fill="none" stroke-width="3"></path></g><g transform="translate(729 93)"><path d="M0 -45L39 -22.5L39 22.5L0 45L-39 22.5L-39 -22.5Z" stroke="#00796b30" fill="none" stroke-width="3"></path></g><g transform="translate(467 341)"><path d="M0 -47L40.7 -23.5L40.7 23.5L0 47L-40.7 23.5L-40.7 -23.5Z" stroke="#00796b30" fill="none" stroke-width="3"></path></g><g transform="translate(127 33)"><path d="M0 -34L29.4 -17L29.4 17L0 34L-29.4 17L-29.4 -17Z" stroke="#00796b30" fill="none" stroke-width="3"></path></g><g transform="translate(875 69)"><path d="M0 -25L21.7 -12.5L21.7 12.5L0 25L-21.7 12.5L-21.7 -12.5Z" stroke="#00796b30" fill="none" stroke-width="3"></path></g><g transform="translate(110 449)"><path d="M0 -12L10.4 -6L10.4 6L0 12L-10.4 6L-10.4 -6Z" stroke="#00796b30" fill="none" stroke-width="3"></path></g><g transform="translate(581 430)"><path d="M0 -21L18.2 -10.5L18.2 10.5L0 21L-18.2 10.5L-18.2 -10.5Z" stroke="#00796b30" fill="none" stroke-width="3"></path></g><g transform="translate(791 241)"><path d="M0 -37L32 -18.5L32 18.5L0 37L-32 18.5L-32 -18.5Z" stroke="#00796b30" fill="none" stroke-width="3"></path></g><g transform="translate(358 366)"><path d="M0 -17L14.7 -8.5L14.7 8.5L0 17L-14.7 8.5L-14.7 -8.5Z" stroke="#00796b30" fill="none" stroke-width="3"></path></g><g transform="translate(123 548)"><path d="M0 -35L30.3 -17.5L30.3 17.5L0 35L-30.3 17.5L-30.3 -17.5Z" stroke="#00796b30" fill="none" stroke-width="3"></path></g><g transform="translate(582 537)"><path d="M0 -12L10.4 -6L10.4 6L0 12L-10.4 6L-10.4 -6Z" stroke="#00796b30" fill="none" stroke-width="3"></path></g></g></svg>